PathFileType	4	(x/y/z)	S02_M20_T04
DataRate	CameraRate	NumFrames	NumMarkers	Units	OrigDataRate	OrigDataStartFrame	OrigNumFrames
240	240	7	51	mm	240	234	466
Frame#	Time	Sternum			R.Acromium			L.Acromium			Top.Head			R.ASIS			L.ASIS			R.PSIS			L.PSIS			R.Great.Tro			L.Great.Tro			R.Iliac.Crest			L.Iliac.Crest			V.Sacral			R.Thigh.Upper.Post			R.Thigh.Lower.Ant			R.Thigh.Lower.Post			R.Thigh.Upper.Ant			R.Knee.Lat			R.Knee.Med			R.Shank.Upper.Post			R.Shank.Lower.Ant			R.Shank.Lower.Post			R.Shank.Upper.Ant			R.Ankle.Lat			R.Ankle.Med			R.Heel.Upper			R.Heel.Med			R.Heel.Lat			R.Toe.Lat			R.Toe.Med			R.Toe.Tip			L.Thigh.Upper.Post			L.Thigh.Lower.Ant			L.Thigh.Lower.Post			L.Thigh.Upper.Ant			L.Knee.Lat			L.Knee.Med			L.Shank.Upper.Post			L.Shank.Lower.Ant			L.Shank.Lower.Post			L.Shank.Upper.Ant			L.Ankle.Lat			L.Ankle.Med			L.Heel.Upper			L.Heel.Med			L.Heel.Lat			L.Toe.Lat			L.Toe.Med			L.Toe.Tip			Cervical.Spine			Back			
		X1	Y1	Z1	X2	Y2	Z2	X3	Y3	Z3	X4	Y4	Z4	X5	Y5	Z5	X6	Y6	Z6	X7	Y7	Z7	X8	Y8	Z8	X9	Y9	Z9	X10	Y10	Z10	X11	Y11	Z11	X12	Y12	Z12	X13	Y13	Z13	X14	Y14	Z14	X15	Y15	Z15	X16	Y16	Z16	X17	Y17	Z17	X18	Y18	Z18	X19	Y19	Z19	X20	Y20	Z20	X21	Y21	Z21	X22	Y22	Z22	X23	Y23	Z23	X24	Y24	Z24	X25	Y25	Z25	X26	Y26	Z26	X27	Y27	Z27	X28	Y28	Z28	X29	Y29	Z29	X30	Y30	Z30	X31	Y31	Z31	X32	Y32	Z32	X33	Y33	Z33	X34	Y34	Z34	X35	Y35	Z35	X36	Y36	Z36	X37	Y37	Z37	X38	Y38	Z38	X39	Y39	Z39	X40	Y40	Z40	X41	Y41	Z41	X42	Y42	Z42	X43	Y43	Z43	X44	Y44	Z44	X45	Y45	Z45	X46	Y46	Z46	X47	Y47	Z47	X48	Y48	Z48	X49	Y49	Z49	X50	Y50	Z50	X51	Y51	Z51	

234	0.97083	-274.86	1119.4	345.34	-392.75	1339	500.15	-386.73	1360.6	209.39	-333.85	1629.6	381.1	-298.71	936.17	451.99	-287.73	932.65	236.47	-513.67	969.25	380.83	-514.02	971.7	306.56	-376.9	818.24	533.18	-400.87	837.12	142.28	-404.07	982.91	503.34	-407.5	979.95	166.29	-538.72	922.14	337.48	-372.22	615.02	500.85	-319.63	537.59	458.77	-390.54	529.53	475.4	-304.79	622.89	482.9	-373.87	453.02	452.54	-382.98	447.18	311.03	-475.72	255.18	427.79	-411.14	167.87	404.96	-477.47	182.51	414.28	-405.38	235.01	425.4	-473.24	90.319	395.07	-463.21	104.04	313.77	-535.15	79.123	339.33	-522.35	46.114	312.13	-532.86	48.359	375.77	-372.2	39.299	419.15	-338.85	32.943	312.33	-290.31	58.624	367.78	-343.97	610.8	157.8	-244.12	564.2	147.74	-308.83	528.13	175.54	-287.08	648.72	133.79	-239.87	481.03	157.09	-216.09	477.74	294.57	-370.3	348.97	180.72	-334.03	243.57	178.63	-394.43	281.37	195.91	-315.68	316.66	164.81	-408.02	160.34	200.38	-382.07	152.51	279.44	-468.83	148.49	248.83	-460.99	120.9	281.19	-478.4	119.88	222.47	-336.07	55.95	160.36	-290.08	60.819	260.17	-239.34	57.376	202.29	-466.42	1406.4	359.02	-535.36	1152.8	348.23
235	0.975	-270.32	1119.5	345.87	-388.2	1339.2	500.35	-382.18	1360.6	209.57	-328.87	1629.4	380.96	-294.65	935.99	452.61	-282.61	932.78	237.15	-509.27	969.08	380.08	-509.22	971.57	305.79	-373.43	818.09	533.26	-394.92	837.36	141.97	-400.38	982.73	503.32	-402.02	980.17	166.25	-533.97	921.93	336.51	-370.37	614.99	500.94	-318.21	537.07	459.1	-389.29	529.6	475.41	-302.73	622.27	483.24	-373.16	452.91	452.65	-381.75	447.01	311.1	-475.41	255.31	427.76	-411.11	167.9	404.9	-477.3	182.66	414.24	-405.2	235.01	425.38	-473.21	90.375	395.01	-463.13	104.14	313.73	-535.13	79.157	339.22	-522.33	46.163	312.09	-532.85	48.422	375.72	-372.21	39.259	419.14	-338.86	32.962	312.36	-290.31	58.628	367.84	-337.29	610.97	157.95	-237.11	564.94	148.55	-301.76	528.5	175.97	-280.5	649.18	134.2	-232.28	481.76	158.05	-209.17	478.79	295.56	-359.84	346.55	181.02	-320.98	242.06	178.91	-382.22	278.36	196.08	-304.42	315.59	165.23	-393.1	157.1	200.26	-366.87	149.56	279.36	-453.63	143.67	248.76	-445.05	116.12	281.02	-462.46	114.86	222.32	-318.66	54.48	159.97	-272.68	60.175	259.8	-221.94	58.069	201.85	-461.78	1406.3	359.16	-530.86	1152.7	348.22
236	0.97917	-265.78	1119.4	346.4	-383.63	1339.2	500.55	-377.62	1360.4	209.73	-323.89	1629.2	380.81	-290.58	935.77	453.17	-277.49	932.85	237.79	-504.85	968.85	379.34	-504.41	971.39	305.05	-369.96	817.92	533.33	-388.99	837.53	141.66	-396.65	982.5	503.29	-396.56	980.34	166.2	-529.22	921.68	335.57	-368.5	614.96	501.03	-316.78	536.55	459.41	-388.01	529.66	475.44	-300.66	621.65	483.55	-372.43	452.79	452.76	-380.54	446.83	311.17	-475.1	255.45	427.72	-411.09	167.92	404.85	-477.13	182.82	414.2	-405.02	235.01	425.36	-473.17	90.431	394.95	-463.06	104.24	313.68	-535.1	79.184	339.11	-522.3	46.211	312.05	-532.84	48.482	375.66	-372.22	39.215	419.13	-338.87	32.983	312.39	-290.31	58.634	367.9	-330.67	611.06	158.11	-230.18	565.59	149.38	-294.79	528.78	176.4	-273.96	649.55	134.64	-224.77	482.4	159	-202.36	479.73	296.58	-349.36	344.08	181.28	-307.92	240.58	179.19	-369.98	275.34	196.24	-293.17	314.51	165.65	-378.1	153.93	200.13	-351.63	146.7	279.29	-438.3	138.93	248.67	-429.01	111.46	280.84	-446.4	109.95	222.14	-301.2	53.12	159.64	-255.3	59.665	259.49	-204.56	58.882	201.5	-457.12	1406.2	359.29	-526.35	1152.6	348.2
237	0.98333	-261.24	1119.3	346.92	-379.04	1339.2	500.73	-373.05	1360.2	209.88	-318.91	1629	380.63	-286.48	935.48	453.7	-272.37	932.86	238.39	-500.41	968.59	378.62	-499.58	971.16	304.33	-366.48	817.73	533.39	-383.08	837.63	141.35	-392.88	982.23	503.24	-391.1	980.44	166.15	-524.47	921.39	334.66	-366.59	614.92	501.11	-315.34	536.05	459.7	-386.69	529.72	475.48	-298.58	621.04	483.83	-371.69	452.67	452.88	-379.38	446.64	311.25	-474.81	255.58	427.68	-411.08	167.94	404.82	-476.98	182.97	414.15	-404.85	235.01	425.36	-473.14	90.485	394.88	-462.98	104.34	313.64	-535.08	79.206	338.99	-522.26	46.256	312.02	-532.83	48.54	375.6	-372.23	39.169	419.12	-338.88	33.004	312.42	-290.3	58.641	367.97	-324.1	611.09	158.28	-223.33	566.14	150.23	-287.9	528.98	176.83	-267.47	649.84	135.1	-217.36	482.95	159.96	-195.68	480.55	297.61	-338.86	341.59	181.51	-294.85	239.15	179.49	-357.71	272.32	196.39	-281.93	313.44	166.06	-363.04	150.82	200	-336.37	143.94	279.22	-422.87	134.28	248.55	-412.89	106.91	280.65	-430.23	105.13	221.94	-283.7	51.879	159.36	-237.94	59.298	259.26	-187.21	59.822	201.24	-452.45	1406.1	359.42	-521.86	1152.5	348.16
238	0.9875	-256.7	1119.1	347.43	-374.44	1339.1	500.91	-368.47	1360	210.03	-313.92	1628.6	380.42	-282.36	935.15	454.18	-267.24	932.8	238.95	-495.96	968.28	377.92	-494.75	970.88	303.62	-362.99	817.51	533.43	-377.19	837.66	141.05	-389.08	981.9	503.19	-385.66	980.49	166.09	-519.73	921.07	333.77	-364.65	614.87	501.18	-313.87	535.55	459.96	-385.34	529.78	475.53	-296.48	620.44	484.07	-370.93	452.55	453	-378.25	446.46	311.34	-474.52	255.72	427.64	-411.07	167.95	404.79	-476.83	183.12	414.09	-404.68	235	425.37	-473.11	90.54	394.82	-462.9	104.43	313.6	-535.06	79.224	338.87	-522.21	46.298	311.98	-532.82	48.598	375.54	-372.24	39.12	419.11	-338.88	33.027	312.46	-290.3	58.65	368.04	-317.6	611.05	158.45	-216.57	566.59	151.08	-281.11	529.11	177.27	-261.03	650.05	135.58	-210.03	483.42	160.92	-189.11	481.25	298.65	-328.35	339.08	181.72	-281.78	237.76	179.79	-345.41	269.32	196.52	-270.69	312.36	166.47	-347.91	147.8	199.86	-321.08	141.29	279.15	-407.32	129.71	248.39	-396.7	102.5	280.45	-413.97	100.43	221.72	-266.17	50.767	159.15	-220.63	59.08	259.11	-169.91	60.899	201.08	-447.77	1405.8	359.54	-517.36	1152.3	348.11
239	0.99167	-252.15	1118.8	347.93	-369.82	1339	501.07	-363.86	1359.6	210.16	-308.93	1628.3	380.2	-278.22	934.77	454.62	-262.11	932.69	239.47	-491.49	967.93	377.25	-489.9	970.55	302.93	-359.49	817.27	533.46	-371.32	837.62	140.76	-385.24	981.52	503.12	-380.23	980.46	166.02	-514.98	920.71	332.91	-362.66	614.82	501.24	-312.39	535.05	460.19	-383.95	529.84	475.6	-294.36	619.84	484.27	-370.15	452.43	453.13	-377.16	446.29	311.42	-474.25	255.86	427.58	-411.07	167.96	404.78	-476.7	183.28	414.03	-404.52	234.99	425.39	-473.07	90.594	394.75	-462.81	104.53	313.55	-535.04	79.239	338.75	-522.16	46.338	311.94	-532.8	48.655	375.48	-372.26	39.071	419.1	-338.88	33.05	312.49	-290.29	58.659	368.1	-311.16	610.94	158.63	-209.88	566.94	151.94	-274.41	529.15	177.7	-254.63	650.17	136.08	-202.79	483.8	161.87	-182.65	481.84	299.71	-317.83	336.55	181.89	-268.71	236.43	180.1	-333.09	266.33	196.64	-259.48	311.29	166.87	-332.72	144.86	199.71	-305.78	138.75	279.09	-391.67	125.24	248.21	-380.44	98.235	280.24	-397.62	95.854	221.48	-248.62	49.792	158.99	-203.35	59.019	259.05	-152.64	62.122	201.02	-443.08	1405.6	359.66	-512.87	1152.1	348.04
240	0.99583	-247.6	1118.4	348.42	-365.18	1338.8	501.21	-359.25	1359.3	210.28	-303.93	1627.8	379.95	-274.07	934.34	455.02	-256.98	932.52	239.96	-487.01	967.54	376.59	-485.04	970.18	302.27	-355.98	817.01	533.46	-365.47	837.5	140.48	-381.37	981.08	503.04	-374.8	980.38	165.95	-510.23	920.3	332.07	-360.64	614.76	501.28	-310.88	534.56	460.39	-382.51	529.89	475.67	-292.21	619.24	484.43	-369.35	452.3	453.26	-376.12	446.11	311.51	-473.98	256.01	427.52	-411.06	167.97	404.79	-476.57	183.43	413.95	-404.35	234.97	425.43	-473.04	90.647	394.68	-462.73	104.62	313.5	-535.02	79.254	338.63	-522.11	46.374	311.9	-532.79	48.714	375.41	-372.28	39.022	419.1	-338.88	33.073	312.52	-290.28	58.669	368.17	-304.78	610.75	158.82	-203.28	567.2	152.81	-267.8	529.11	178.13	-248.29	650.21	136.6	-195.64	484.09	162.81	-176.31	482.3	300.78	-307.3	334.02	182.04	-255.65	235.17	180.41	-320.76	263.37	196.75	-248.28	310.24	167.27	-317.47	142.02	199.57	-290.47	136.33	279.03	-375.92	120.88	248	-364.12	94.11	280.01	-381.18	91.404	221.21	-231.04	48.965	158.9	-186.14	59.123	259.06	-135.43	63.5	201.07	-438.37	1405.2	359.76	-508.38	1151.8	347.95
